<?xml version="1.0" encoding="UTF-8" standalone="no"?>
<!-- Created with Inkscape (http://www.inkscape.org/) -->

<svg
   version="1.1"
   id="svg1205"
   width="587.19934"
   height="395.19937"
   viewBox="0 0 587.19934 395.19937"
   sodipodi:docname="bg_energies_violins.svg"
   inkscape:version="1.2.2 (b0a8486541, 2022-12-01)"
   xmlns:inkscape="http://www.inkscape.org/namespaces/inkscape"
   xmlns:sodipodi="http://sodipodi.sourceforge.net/DTD/sodipodi-0.dtd"
   xmlns="http://www.w3.org/2000/svg"
   xmlns:svg="http://www.w3.org/2000/svg">
  <defs
     id="defs1209">
    <clipPath
       clipPathUnits="userSpaceOnUse"
       id="clipPath1225">
      <path
         d="M 39.059375,12.785938 H 433.19952 V 285.78546 H 39.059375 Z"
         id="path1223" />
    </clipPath>
    <clipPath
       clipPathUnits="userSpaceOnUse"
       id="clipPath1245">
      <path
         d="M -970,-443 H 2000 V 1023 H -970 Z"
         id="path1243" />
    </clipPath>
    <clipPath
       clipPathUnits="userSpaceOnUse"
       id="clipPath1255">
      <path
         d="M 39.059375,12.785938 H 433.19952 V 285.78546 H 39.059375 Z"
         id="path1253" />
    </clipPath>
    <clipPath
       clipPathUnits="userSpaceOnUse"
       id="clipPath1273">
      <path
         d="M 39.059375,12.785938 H 433.19952 V 285.78546 H 39.059375 Z"
         id="path1271" />
    </clipPath>
    <clipPath
       clipPathUnits="userSpaceOnUse"
       id="clipPath1291">
      <path
         d="M 39.059375,12.785938 H 433.19952 V 285.78546 H 39.059375 Z"
         id="path1289" />
    </clipPath>
    <clipPath
       clipPathUnits="userSpaceOnUse"
       id="clipPath1309">
      <path
         d="M 39.059375,12.785938 H 433.19952 V 285.78546 H 39.059375 Z"
         id="path1307" />
    </clipPath>
    <clipPath
       clipPathUnits="userSpaceOnUse"
       id="clipPath1327">
      <path
         d="M 39.059375,12.785938 H 433.19952 V 285.78546 H 39.059375 Z"
         id="path1325" />
    </clipPath>
    <clipPath
       clipPathUnits="userSpaceOnUse"
       id="clipPath1345">
      <path
         d="M 39.059375,12.785938 H 433.19952 V 285.78546 H 39.059375 Z"
         id="path1343" />
    </clipPath>
    <clipPath
       clipPathUnits="userSpaceOnUse"
       id="clipPath1363">
      <path
         d="M 39.059375,12.785938 H 433.19952 V 285.78546 H 39.059375 Z"
         id="path1361" />
    </clipPath>
    <clipPath
       clipPathUnits="userSpaceOnUse"
       id="clipPath1381">
      <path
         d="M 39.059375,12.785938 H 433.19952 V 285.78546 H 39.059375 Z"
         id="path1379" />
    </clipPath>
    <clipPath
       clipPathUnits="userSpaceOnUse"
       id="clipPath1405">
      <path
         d="M 39.059375,12.785938 H 433.19952 V 285.78546 H 39.059375 Z"
         id="path1403" />
    </clipPath>
    <clipPath
       clipPathUnits="userSpaceOnUse"
       id="clipPath1415">
      <path
         d="M 39.059375,12.785938 H 433.19952 V 285.78546 H 39.059375 Z"
         id="path1413" />
    </clipPath>
    <clipPath
       clipPathUnits="userSpaceOnUse"
       id="clipPath1425">
      <path
         d="M 39.059375,12.785938 H 433.19952 V 285.78546 H 39.059375 Z"
         id="path1423" />
    </clipPath>
    <clipPath
       clipPathUnits="userSpaceOnUse"
       id="clipPath1435">
      <path
         d="M 39.059375,12.785938 H 433.19952 V 285.78546 H 39.059375 Z"
         id="path1433" />
    </clipPath>
    <clipPath
       clipPathUnits="userSpaceOnUse"
       id="clipPath1445">
      <path
         d="M 39.059375,12.785938 H 433.19952 V 285.78546 H 39.059375 Z"
         id="path1443" />
    </clipPath>
    <clipPath
       clipPathUnits="userSpaceOnUse"
       id="clipPath1455">
      <path
         d="M 39.059375,12.785938 H 433.19952 V 285.78546 H 39.059375 Z"
         id="path1453" />
    </clipPath>
    <clipPath
       clipPathUnits="userSpaceOnUse"
       id="clipPath1465">
      <path
         d="M 39.059375,12.785938 H 433.19952 V 285.78546 H 39.059375 Z"
         id="path1463" />
    </clipPath>
    <clipPath
       clipPathUnits="userSpaceOnUse"
       id="clipPath1475">
      <path
         d="M 39.059375,12.785938 H 433.19952 V 285.78546 H 39.059375 Z"
         id="path1473" />
    </clipPath>
    <clipPath
       clipPathUnits="userSpaceOnUse"
       id="clipPath1485">
      <path
         d="M 39.059375,12.785938 H 433.19952 V 285.78546 H 39.059375 Z"
         id="path1483" />
    </clipPath>
    <clipPath
       clipPathUnits="userSpaceOnUse"
       id="clipPath1495">
      <path
         d="M 39.059375,12.785938 H 433.19952 V 285.78546 H 39.059375 Z"
         id="path1493" />
    </clipPath>
    <clipPath
       clipPathUnits="userSpaceOnUse"
       id="clipPath1505">
      <path
         d="M 39.059375,12.785938 H 433.19952 V 285.78546 H 39.059375 Z"
         id="path1503" />
    </clipPath>
    <clipPath
       clipPathUnits="userSpaceOnUse"
       id="clipPath1515">
      <path
         d="M 39.059375,12.785938 H 433.19952 V 285.78546 H 39.059375 Z"
         id="path1513" />
    </clipPath>
    <clipPath
       clipPathUnits="userSpaceOnUse"
       id="clipPath1525">
      <path
         d="M 39.059375,12.785938 H 433.19952 V 285.78546 H 39.059375 Z"
         id="path1523" />
    </clipPath>
    <clipPath
       clipPathUnits="userSpaceOnUse"
       id="clipPath1535">
      <path
         d="M 39.059375,12.785938 H 433.19952 V 285.78546 H 39.059375 Z"
         id="path1533" />
    </clipPath>
    <clipPath
       clipPathUnits="userSpaceOnUse"
       id="clipPath1545">
      <path
         d="M 39.059375,12.785938 H 433.19952 V 285.78546 H 39.059375 Z"
         id="path1543" />
    </clipPath>
    <clipPath
       clipPathUnits="userSpaceOnUse"
       id="clipPath1555">
      <path
         d="M 39.059375,12.785938 H 433.19952 V 285.78546 H 39.059375 Z"
         id="path1553" />
    </clipPath>
  </defs>
  <sodipodi:namedview
     id="namedview1207"
     pagecolor="#505050"
     bordercolor="#ffffff"
     borderopacity="1"
     inkscape:showpageshadow="0"
     inkscape:pageopacity="0"
     inkscape:pagecheckerboard="1"
     inkscape:deskcolor="#505050"
     showgrid="false"
     inkscape:zoom="2.4693488"
     inkscape:cx="246.21876"
     inkscape:cy="197.62295"
     inkscape:window-width="2560"
     inkscape:window-height="1371"
     inkscape:window-x="0"
     inkscape:window-y="32"
     inkscape:window-maximized="1"
     inkscape:current-layer="g1213">
    <inkscape:page
       x="0"
       y="0"
       id="page1211"
       width="587.19934"
       height="395.19937"
       inkscape:export-filename="../../../../../git/alexhernandezgarcia.github.io/assets/images/slides/crystals/bg_distr_4.png"
       inkscape:export-xdpi="300"
       inkscape:export-ydpi="300" />
  </sodipodi:namedview>
  <g
     id="g1213"
     inkscape:groupmode="layer"
     inkscape:label="Page 1"
     transform="matrix(1.3333333,0,0,-1.3333333,0,395.19936)">
    <path
       d="M 0,0 H 440.39952 V 296.39952 H 0 Z"
       style="fill:#ffffff;fill-opacity:1;fill-rule:nonzero;stroke:none"
       id="path1215" />
    <path
       d="M 39.059375,12.785938 H 433.19952 V 285.78546 H 39.059375 Z"
       style="fill:#ffffff;fill-opacity:1;fill-rule:nonzero;stroke:none"
       id="path1217" />
    <g
       id="g1219">
      <g
         id="g1221"
         clip-path="url(#clipPath1225)">
        <path
           d="M 39.059375,12.785938 H 433.19952"
           style="fill:none;stroke:#cccccc;stroke-width:0.8;stroke-linecap:round;stroke-linejoin:round;stroke-miterlimit:10;stroke-dasharray:none;stroke-opacity:1"
           id="path1227" />
      </g>
    </g>
    <g
       id="g1229">
      <g
         id="g1231"
         transform="translate(20.215625,9.371875)">
        <text
           xml:space="preserve"
           transform="matrix(1,0,0,-1,6.8499908,0)"
           style="font-variant:normal;font-weight:normal;font-size:10px;font-family:STIXGeneral;-inkscape-font-specification:STIXGeneral-Regular;writing-mode:lr-tb;fill:#262626;fill-opacity:1;fill-rule:nonzero;stroke:none"
           id="text1235"><tspan
             x="0"
             y="0"
             id="tspan1233">1</tspan></text>
        <g
           id="g1237"
           transform="scale(0.01)">
          <g
             id="g1239">
            <g
               id="g1241"
               clip-path="url(#clipPath1245)">
              <path
                 d="M 621,220 H 64 v 66 h 557 z"
                 style="fill:#262626;fill-opacity:1;fill-rule:nonzero;stroke:none"
                 id="path1247" />
            </g>
          </g>
        </g>
      </g>
    </g>
    <g
       id="g1249">
      <g
         id="g1251"
         clip-path="url(#clipPath1255)">
        <path
           d="M 39.059375,46.910878 H 433.19952"
           style="fill:none;stroke:#cccccc;stroke-width:0.8;stroke-linecap:round;stroke-linejoin:round;stroke-miterlimit:10;stroke-dasharray:none;stroke-opacity:1"
           id="path1257" />
      </g>
    </g>
    <g
       id="g1259">
      <g
         id="g1261"
         transform="translate(27.059375,43.496815)">
        <text
           xml:space="preserve"
           transform="scale(1,-1)"
           style="font-variant:normal;font-weight:normal;font-size:10px;font-family:STIXGeneral;-inkscape-font-specification:STIXGeneral-Regular;writing-mode:lr-tb;fill:#262626;fill-opacity:1;fill-rule:nonzero;stroke:none"
           id="text1265"><tspan
             x="0"
             y="0"
             id="tspan1263">0</tspan></text>
      </g>
    </g>
    <g
       id="g1267">
      <g
         id="g1269"
         clip-path="url(#clipPath1273)">
        <path
           d="M 39.059375,81.035818 H 433.19952"
           style="fill:none;stroke:#cccccc;stroke-width:0.8;stroke-linecap:round;stroke-linejoin:round;stroke-miterlimit:10;stroke-dasharray:none;stroke-opacity:1"
           id="path1275" />
      </g>
    </g>
    <g
       id="g1277">
      <g
         id="g1279"
         transform="translate(27.059375,77.621755)">
        <text
           xml:space="preserve"
           transform="scale(1,-1)"
           style="font-variant:normal;font-weight:normal;font-size:10px;font-family:STIXGeneral;-inkscape-font-specification:STIXGeneral-Regular;writing-mode:lr-tb;fill:#262626;fill-opacity:1;fill-rule:nonzero;stroke:none"
           id="text1283"><tspan
             x="0"
             y="0"
             id="tspan1281">1</tspan></text>
      </g>
    </g>
    <g
       id="g1285">
      <g
         id="g1287"
         clip-path="url(#clipPath1291)">
        <path
           d="M 39.059375,115.16076 H 433.19952"
           style="fill:none;stroke:#cccccc;stroke-width:0.8;stroke-linecap:round;stroke-linejoin:round;stroke-miterlimit:10;stroke-dasharray:none;stroke-opacity:1"
           id="path1293" />
      </g>
    </g>
    <g
       id="g1295">
      <g
         id="g1297"
         transform="translate(27.059375,111.7467)">
        <text
           xml:space="preserve"
           transform="scale(1,-1)"
           style="font-variant:normal;font-weight:normal;font-size:10px;font-family:STIXGeneral;-inkscape-font-specification:STIXGeneral-Regular;writing-mode:lr-tb;fill:#262626;fill-opacity:1;fill-rule:nonzero;stroke:none"
           id="text1301"><tspan
             x="0"
             y="0"
             id="tspan1299">2</tspan></text>
      </g>
    </g>
    <g
       id="g1303">
      <g
         id="g1305"
         clip-path="url(#clipPath1309)">
        <path
           d="M 39.059375,149.2857 H 433.19952"
           style="fill:none;stroke:#cccccc;stroke-width:0.8;stroke-linecap:round;stroke-linejoin:round;stroke-miterlimit:10;stroke-dasharray:none;stroke-opacity:1"
           id="path1311" />
      </g>
    </g>
    <g
       id="g1313">
      <g
         id="g1315"
         transform="translate(27.059375,145.87163)">
        <text
           xml:space="preserve"
           transform="scale(1,-1)"
           style="font-variant:normal;font-weight:normal;font-size:10px;font-family:STIXGeneral;-inkscape-font-specification:STIXGeneral-Regular;writing-mode:lr-tb;fill:#262626;fill-opacity:1;fill-rule:nonzero;stroke:none"
           id="text1319"><tspan
             x="0"
             y="0"
             id="tspan1317">3</tspan></text>
      </g>
    </g>
    <g
       id="g1321">
      <g
         id="g1323"
         clip-path="url(#clipPath1327)">
        <path
           d="M 39.059375,183.41064 H 433.19952"
           style="fill:none;stroke:#cccccc;stroke-width:0.8;stroke-linecap:round;stroke-linejoin:round;stroke-miterlimit:10;stroke-dasharray:none;stroke-opacity:1"
           id="path1329" />
      </g>
    </g>
    <g
       id="g1331">
      <g
         id="g1333"
         transform="translate(27.059375,179.99657)">
        <text
           xml:space="preserve"
           transform="scale(1,-1)"
           style="font-variant:normal;font-weight:normal;font-size:10px;font-family:STIXGeneral;-inkscape-font-specification:STIXGeneral-Regular;writing-mode:lr-tb;fill:#262626;fill-opacity:1;fill-rule:nonzero;stroke:none"
           id="text1337"><tspan
             x="0"
             y="0"
             id="tspan1335">4</tspan></text>
      </g>
    </g>
    <g
       id="g1339">
      <g
         id="g1341"
         clip-path="url(#clipPath1345)">
        <path
           d="M 39.059375,217.53558 H 433.19952"
           style="fill:none;stroke:#cccccc;stroke-width:0.8;stroke-linecap:round;stroke-linejoin:round;stroke-miterlimit:10;stroke-dasharray:none;stroke-opacity:1"
           id="path1347" />
      </g>
    </g>
    <g
       id="g1349">
      <g
         id="g1351"
         transform="translate(27.059375,214.12151)">
        <text
           xml:space="preserve"
           transform="scale(1,-1)"
           style="font-variant:normal;font-weight:normal;font-size:10px;font-family:STIXGeneral;-inkscape-font-specification:STIXGeneral-Regular;writing-mode:lr-tb;fill:#262626;fill-opacity:1;fill-rule:nonzero;stroke:none"
           id="text1355"><tspan
             x="0"
             y="0"
             id="tspan1353">5</tspan></text>
      </g>
    </g>
    <g
       id="g1357">
      <g
         id="g1359"
         clip-path="url(#clipPath1363)">
        <path
           d="M 39.059375,251.66052 H 433.19952"
           style="fill:none;stroke:#cccccc;stroke-width:0.8;stroke-linecap:round;stroke-linejoin:round;stroke-miterlimit:10;stroke-dasharray:none;stroke-opacity:1"
           id="path1365" />
      </g>
    </g>
    <g
       id="g1367">
      <g
         id="g1369"
         transform="translate(27.059375,248.24645)">
        <text
           xml:space="preserve"
           transform="scale(1,-1)"
           style="font-variant:normal;font-weight:normal;font-size:10px;font-family:STIXGeneral;-inkscape-font-specification:STIXGeneral-Regular;writing-mode:lr-tb;fill:#262626;fill-opacity:1;fill-rule:nonzero;stroke:none"
           id="text1373"><tspan
             x="0"
             y="0"
             id="tspan1371">6</tspan></text>
      </g>
    </g>
    <g
       id="g1375">
      <g
         id="g1377"
         clip-path="url(#clipPath1381)">
        <path
           d="M 39.059375,285.78546 H 433.19952"
           style="fill:none;stroke:#cccccc;stroke-width:0.8;stroke-linecap:round;stroke-linejoin:round;stroke-miterlimit:10;stroke-dasharray:none;stroke-opacity:1"
           id="path1383" />
      </g>
    </g>
    <g
       id="g1385">
      <g
         id="g1387"
         transform="translate(27.059375,282.37139)">
        <text
           xml:space="preserve"
           transform="scale(1,-1)"
           style="font-variant:normal;font-weight:normal;font-size:10px;font-family:STIXGeneral;-inkscape-font-specification:STIXGeneral-Regular;writing-mode:lr-tb;fill:#262626;fill-opacity:1;fill-rule:nonzero;stroke:none"
           id="text1391"><tspan
             x="0"
             y="0"
             id="tspan1389">7</tspan></text>
      </g>
      <g
         id="g1393"
         transform="rotate(90,-43.261599,57.289724)">
        <text
           xml:space="preserve"
           transform="scale(1,-1)"
           style="font-variant:normal;font-weight:normal;font-size:10px;font-family:STIXGeneral;-inkscape-font-specification:STIXGeneral-Regular;writing-mode:lr-tb;fill:#262626;fill-opacity:1;fill-rule:nonzero;stroke:none"
           id="text1397"><tspan
             x="0 5.5700002 8.8999996 13.34 18.34 21.120001 25.559999 28.34 32.779999 37.779999 40.279999 45.279999 49.720001 54.720001 59.720001 62.220001 67.220001 71.660004 76.660004 79.160004 82.489998 86.93 94.150002"
             y="0"
             sodipodi:role="line"
             id="tspan1395">Predicted band gap [eV]</tspan></text>
      </g>
    </g>
    <g
       id="g1399">
      <g
         id="g1401"
         clip-path="url(#clipPath1405)">
        <path
           d="m 132.80647,47.707939 h -3.56212 l -1.15019,1.52383 -0.93723,1.52383 -0.44534,1.52383 -0.0323,1.52383 0.0816,1.523829 -0.0462,1.52383 -0.22429,1.52383 -0.31001,1.52383 -0.27159,1.52383 -0.21267,1.52383 -0.3075,1.52383 -0.54914,1.52383 -0.72718,1.52383 -0.77965,1.523829 -0.87873,1.52383 -1.10824,1.52383 -1.31883,1.52383 -1.3831,1.52383 -1.46196,1.52383 -1.8382,1.52383 -2.47155,1.52383 -2.96203,1.52383 -3.059,1.52383 -3.01168,1.523829 -3.23317,1.52383 -3.65373,1.52383 -3.748102,1.52383 -3.353962,1.52383 -2.937938,1.52383 -2.802699,1.52383 -2.642197,1.52383 -2.035132,1.52383 -0.959001,1.523829 0.235954,1.52383 1.308609,1.523835 2.376462,1.52383 3.460275,1.52383 4.259378,1.52382 4.649901,1.52383 4.759485,1.52384 4.610057,1.52383 4.25423,1.52382 3.85316,1.52383 3.43645,1.52383 2.96011,1.52383 2.46159,1.52383 2.0075,1.52383 1.61933,1.52383 1.2833,1.52383 0.99754,1.52383 0.76226,1.52383 0.56368,1.52383 0.41602,1.52383 0.34127,1.52383 0.31684,1.52383 0.29529,1.52383 0.24071,1.52383 0.15571,1.52383 0.0708,1.52383 0.0127,1.52383 0.0126,1.52383 0.0783,1.52383 0.14678,1.52383 0.15011,1.52383 0.10376,1.52383 0.0595,1.52383 0.0265,1.52383 -0.004,1.52383 -0.0137,1.52383 0.0135,1.52383 0.0563,1.52383 0.0705,1.52383 0.0404,1.52383 -0.003,1.52383 -0.0221,1.52383 -0.0104,1.52383 0.0101,1.52383 0.0211,1.52383 0.0186,1.52383 0.0104,1.52383 0.008,1.52383 0.0117,1.52383 0.0119,1.52383 0.007,1.52383 0.004,1.52383 0.002,1.52383 0.002,1.52383 0.006,1.52383 0.009,1.52383 0.005,1.52383 -0.004,1.52383 -0.0131,1.52383 -0.014,1.52383 -0.005,1.52383 0.005,1.52383 0.003,1.52383 -0.0116,1.52383 -0.0207,1.52383 -0.007,1.52383 h 0.1601 v 0 l -0.007,-1.52383 -0.0208,-1.52383 -0.0116,-1.52383 0.003,-1.52383 0.005,-1.52383 -0.005,-1.52383 -0.014,-1.52383 -0.0131,-1.52383 -0.004,-1.52383 0.005,-1.52383 0.009,-1.52383 0.006,-1.52383 0.002,-1.52383 0.002,-1.52383 0.004,-1.52383 0.007,-1.52383 0.0119,-1.52383 0.0117,-1.52383 0.008,-1.52383 0.0104,-1.52383 0.0186,-1.52383 0.021,-1.52383 0.0102,-1.52383 -0.0104,-1.52383 -0.0221,-1.52383 -0.003,-1.52383 0.0405,-1.52383 0.0705,-1.52383 0.0563,-1.52383 0.0135,-1.52383 -0.0137,-1.52383 -0.004,-1.52383 0.0265,-1.52383 0.0595,-1.52383 0.10375,-1.52383 0.15011,-1.52383 0.14679,-1.52383 0.0783,-1.52383 0.0126,-1.52383 0.0127,-1.52383 0.0708,-1.52383 0.15571,-1.52383 0.24071,-1.52383 0.29529,-1.52383 0.31684,-1.52383 0.34127,-1.52383 0.41602,-1.52383 0.56368,-1.52383 0.76226,-1.52383 0.99754,-1.52383 1.28329,-1.52383 1.61933,-1.52383 2.0075,-1.52383 2.4616,-1.52383 2.96011,-1.52383 3.43645,-1.52383 3.85316,-1.52383 4.25423,-1.52382 4.61005,-1.52383 4.75949,-1.52384 4.6499,-1.52383 4.25938,-1.52382 3.46027,-1.52383 2.37647,-1.52383 1.3086,-1.523835 0.23596,-1.52383 -0.959,-1.523829 -2.03513,-1.52383 -2.6422,-1.52383 -2.8027,-1.52383 -2.93794,-1.52383 -3.35396,-1.52383 -3.7481,-1.52383 -3.65373,-1.52383 -3.23317,-1.52383 -3.01168,-1.523829 -3.05901,-1.52383 -2.96203,-1.52383 -2.47155,-1.52383 -1.83819,-1.52383 -1.46197,-1.52383 -1.38309,-1.52383 -1.31883,-1.52383 -1.10824,-1.52383 -0.87874,-1.52383 -0.77965,-1.523829 -0.72718,-1.52383 -0.54914,-1.52383 -0.3075,-1.52383 -0.21266,-1.52383 -0.27159,-1.52383 -0.31001,-1.52383 -0.22429,-1.52383 -0.0462,-1.52383 0.0816,-1.523829 -0.0323,-1.52383 -0.44534,-1.52383 -0.93724,-1.52383 -1.15018,-1.52383 z"
           style="fill:#176d9c;fill-opacity:1;fill-rule:nonzero;stroke:#363636;stroke-width:1.25;stroke-linecap:butt;stroke-linejoin:round;stroke-miterlimit:10;stroke-dasharray:none;stroke-opacity:1"
           id="path1407" />
      </g>
    </g>
    <g
       id="g1409">
      <g
         id="g1411"
         clip-path="url(#clipPath1415)">
        <path
           d="m 286.69775,46.910878 h -101.1366 l -1.98372,3.214776 0.84974,3.214776 3.07066,3.214776 4.3482,3.214776 4.6803,3.214776 4.31595,3.214776 3.5988,3.214777 2.82388,3.214776 2.16538,3.214776 1.67928,3.214776 1.34854,3.214776 1.13218,3.214776 0.99507,3.214777 0.91512,3.214776 0.87682,3.214776 0.86338,3.214776 0.85471,3.214774 0.83166,3.21478 0.78228,3.21478 0.7049,3.21477 0.60617,3.21478 0.49586,3.21477 0.3819,3.21478 0.26886,3.21478 0.15969,3.21477 0.0592,3.21478 -0.0237,3.21477 -0.0772,3.21478 -0.0902,3.21478 -0.0575,3.21477 0.017,3.21478 0.12022,3.21477 0.23321,3.21478 0.33712,3.21478 0.41843,3.21477 0.47222,3.21478 0.50248,3.21478 0.51896,3.21477 0.53233,3.21478 0.54919,3.21477 0.56902,3.21478 0.58465,3.21478 0.58568,3.21477 0.56322,3.21478 0.51364,3.21477 0.43997,3.21478 0.35065,3.21478 0.25687,3.21477 0.16962,3.21478 0.0974,3.21478 0.0451,3.21477 0.0142,3.21478 0.004,3.21477 0.0161,3.21478 0.0509,3.21478 0.11212,3.21477 0.20056,3.21478 0.31069,3.21477 0.42809,3.21478 0.53159,3.21478 0.59943,3.21477 0.61724,3.21478 0.58343,3.21478 0.50933,3.21477 0.4142,3.21478 0.31789,3.21477 0.23459,3.21478 0.17038,3.21478 0.12417,3.21477 0.0913,3.21478 0.0666,3.21478 0.0471,3.21477 0.0321,3.21478 0.0223,3.21477 0.0187,3.21478 0.021,3.21478 0.0279,3.21477 0.0366,3.21478 0.0443,3.21477 0.0489,3.21478 0.0497,3.21478 0.0469,3.21477 0.042,3.21478 0.0366,3.21477 0.0318,3.21478 0.0282,3.21478 0.0257,3.21477 0.0238,3.21478 0.022,3.21478 0.0199,3.21477 0.0175,3.21478 0.0145,3.21478 0.011,3.21477 0.007,3.21478 0.004,3.21477 6.3e-4,3.21478 -9.7e-4,3.21478 -10e-4,3.21477 3.6e-4,3.21478 h 0.0795 v 0 l 3.6e-4,-3.21478 -0.001,-3.21477 -9.8e-4,-3.21478 6.3e-4,-3.21478 0.004,-3.21477 0.007,-3.21478 0.011,-3.21477 0.0145,-3.21478 0.0175,-3.21478 0.0199,-3.21477 0.022,-3.21478 0.0238,-3.21478 0.0257,-3.21477 0.0282,-3.21478 0.0318,-3.21478 0.0366,-3.21477 0.042,-3.21478 0.0469,-3.21477 0.0497,-3.21478 0.0489,-3.21478 0.0443,-3.21477 0.0365,-3.21478 0.0279,-3.21477 0.021,-3.21478 0.0187,-3.21478 0.0223,-3.21477 0.0321,-3.21478 0.0471,-3.21477 0.0666,-3.21478 0.0913,-3.21478 0.12418,-3.21477 0.17037,-3.21478 0.2346,-3.21478 0.31788,-3.21477 0.4142,-3.21478 0.50933,-3.21477 0.58343,-3.21478 0.61725,-3.21478 0.59942,-3.21477 0.53159,-3.21478 0.4281,-3.21478 0.31068,-3.21477 0.20056,-3.21478 0.11212,-3.21477 0.0509,-3.21478 0.0161,-3.21478 0.004,-3.21477 0.0142,-3.21478 0.0451,-3.21477 0.0974,-3.21478 0.16961,-3.21478 0.25688,-3.21477 0.35065,-3.21478 0.43996,-3.21478 0.51364,-3.21477 0.56322,-3.21478 0.58569,-3.21477 0.58465,-3.21478 0.56901,-3.21478 0.54919,-3.21477 0.53234,-3.21478 0.51895,-3.21477 0.50248,-3.21478 0.47223,-3.21478 0.41842,-3.21477 0.33713,-3.21478 0.23321,-3.21478 0.12022,-3.21477 0.0171,-3.21478 -0.0575,-3.21477 -0.0902,-3.21478 -0.0772,-3.21478 -0.0237,-3.21477 0.0592,-3.21478 0.15969,-3.21477 0.26886,-3.21478 0.38191,-3.21478 0.49585,-3.21477 0.60618,-3.21478 0.70489,-3.21477 0.78228,-3.21478 0.83166,-3.21478 0.85471,-3.214774 0.86339,-3.214776 0.87682,-3.214776 0.91511,-3.214776 0.99508,-3.214777 1.13217,-3.214776 1.34854,-3.214776 1.67928,-3.214776 2.16538,-3.214776 2.82389,-3.214776 3.59879,-3.214777 4.31595,-3.214776 4.68031,-3.214776 4.3482,-3.214776 3.07066,-3.214776 0.84974,-3.214776 -1.98372,-3.214776 z"
           style="fill:#c38820;fill-opacity:1;fill-rule:nonzero;stroke:#363636;stroke-width:1.25;stroke-linecap:butt;stroke-linejoin:round;stroke-miterlimit:10;stroke-dasharray:none;stroke-opacity:1"
           id="path1417" />
      </g>
    </g>
    <g
       id="g1419">
      <g
         id="g1421"
         clip-path="url(#clipPath1425)">
        <path
           d="m 367.01559,44.253019 h -51.56421 l -11.85787,1.560059 -9.97392,1.560059 -4.93812,1.56006 1.40688,1.560059 6.54037,1.560059 8.89569,1.560059 8.57201,1.56006 6.75673,1.560059 4.68708,1.560059 3.04677,1.560059 1.97194,1.56006 1.32973,1.560059 0.94956,1.560059 0.71422,1.56006 0.55944,1.560059 0.45004,1.560059 0.36444,1.560059 0.28834,1.56006 0.21174,1.560059 0.13037,1.560059 0.0495,1.560059 -0.0176,1.56006 -0.0587,1.560059 -0.0721,1.560059 -0.065,1.560059 -0.0475,1.56006 -0.0276,1.560059 -0.0101,1.560059 0.003,1.560059 0.009,1.56006 0.008,1.560059 -0.006,1.560059 -0.0307,1.560059 -0.0515,1.56006 -0.048,1.560059 -0.007,1.560057 0.0645,1.56006 0.14183,1.56006 0.19926,1.56006 0.2258,1.56006 0.22988,1.56006 0.23133,1.56006 0.24731,1.56006 0.28073,1.56006 0.31755,1.56006 0.33666,1.56005 0.32659,1.56006 0.2956,1.56006 0.26526,1.56006 0.25281,1.56006 0.25855,1.56006 0.26938,1.56006 0.2722,1.56006 0.26218,1.56006 0.24015,1.56006 0.20728,1.56006 0.16594,1.56006 0.12358,1.56006 0.0916,1.56005 0.078,1.56006 0.0813,1.56006 0.0913,1.56006 0.0962,1.56006 0.0899,1.56006 0.0741,1.56006 0.0545,1.56006 0.0359,1.56006 0.0208,1.56006 0.01,1.56006 0.003,1.56006 4.1e-4,1.56006 6.3e-4,1.56006 0.003,1.56005 0.005,1.56006 0.005,1.56006 0.004,1.56006 10e-4,1.56006 -6.5e-4,1.56006 4.6e-4,1.56006 0.004,1.56006 0.007,1.56006 0.008,1.56006 0.006,1.56006 0.003,1.56006 0.002,1.56006 0.004,1.56005 0.008,1.56006 0.0104,1.56006 0.01,1.56006 0.007,1.56006 0.005,1.56006 0.003,1.56006 0.003,1.56006 0.002,1.56006 10e-4,1.56006 -2.7e-4,1.56006 -10e-4,1.56006 -0.002,1.56006 -6.5e-4,1.56006 h 0.0215 v 0 l -6.5e-4,-1.56006 -0.002,-1.56006 -10e-4,-1.56006 -2.7e-4,-1.56006 10e-4,-1.56006 0.002,-1.56006 0.003,-1.56006 0.003,-1.56006 0.005,-1.56006 0.007,-1.56006 0.01,-1.56006 0.0104,-1.56006 0.008,-1.56006 0.004,-1.56005 0.002,-1.56006 0.003,-1.56006 0.006,-1.56006 0.008,-1.56006 0.007,-1.56006 0.004,-1.56006 4.6e-4,-1.56006 -6.5e-4,-1.56006 10e-4,-1.56006 0.004,-1.56006 0.005,-1.56006 0.005,-1.56006 0.003,-1.56005 6.3e-4,-1.56006 4.2e-4,-1.56006 0.003,-1.56006 0.01,-1.56006 0.0208,-1.56006 0.0359,-1.56006 0.0545,-1.56006 0.0741,-1.56006 0.0899,-1.56006 0.0962,-1.56006 0.0913,-1.56006 0.0813,-1.56006 0.078,-1.56006 0.0916,-1.56005 0.12358,-1.56006 0.16594,-1.56006 0.20728,-1.56006 0.24015,-1.56006 0.26218,-1.56006 0.2722,-1.56006 0.26938,-1.56006 0.25855,-1.56006 0.25281,-1.56006 0.26526,-1.56006 0.2956,-1.56006 0.32659,-1.56006 0.33666,-1.56005 0.31755,-1.56006 0.28073,-1.56006 0.24731,-1.56006 0.23133,-1.56006 0.22989,-1.56006 0.22579,-1.56006 0.19926,-1.56006 0.14183,-1.56006 0.0645,-1.56006 -0.007,-1.560057 -0.048,-1.560059 -0.0515,-1.56006 -0.0307,-1.560059 -0.006,-1.560059 0.008,-1.560059 0.009,-1.56006 0.003,-1.560059 -0.0101,-1.560059 -0.0276,-1.560059 -0.0475,-1.56006 -0.065,-1.560059 -0.0721,-1.560059 -0.0587,-1.560059 -0.0175,-1.56006 0.0495,-1.560059 0.13037,-1.560059 0.21174,-1.560059 0.28834,-1.56006 0.36444,-1.560059 0.45004,-1.560059 0.55944,-1.560059 0.71422,-1.56006 0.94956,-1.560059 1.32973,-1.560059 1.97194,-1.56006 3.04677,-1.560059 4.68708,-1.560059 6.75673,-1.560059 8.57201,-1.56006 8.89569,-1.560059 6.54037,-1.560059 1.40688,-1.560059 -4.93812,-1.56006 -9.97392,-1.560059 -11.85787,-1.560059 z"
           style="fill:#c283b6;fill-opacity:1;fill-rule:nonzero;stroke:#363636;stroke-width:1.25;stroke-linecap:butt;stroke-linejoin:round;stroke-miterlimit:10;stroke-dasharray:none;stroke-opacity:1"
           id="path1427" />
      </g>
    </g>
    <g
       id="g1429">
      <g
         id="g1431"
         clip-path="url(#clipPath1435)">
        <path
           d="m 236.12945,46.910878 v 0 0 z"
           style="fill:#176d9c;fill-opacity:1;fill-rule:nonzero;stroke:#363636;stroke-width:1.25;stroke-linecap:butt;stroke-linejoin:miter;stroke-miterlimit:10;stroke-dasharray:none;stroke-opacity:1"
           id="path1437" />
      </g>
    </g>
    <g
       id="g1439">
      <g
         id="g1441"
         clip-path="url(#clipPath1445)">
        <path
           d="m 236.12945,46.910878 v 0 0 z"
           style="fill:#c38820;fill-opacity:1;fill-rule:nonzero;stroke:#363636;stroke-width:1.25;stroke-linecap:butt;stroke-linejoin:miter;stroke-miterlimit:10;stroke-dasharray:none;stroke-opacity:1"
           id="path1447" />
      </g>
    </g>
    <g
       id="g1449">
      <g
         id="g1451"
         clip-path="url(#clipPath1455)">
        <path
           d="m 236.12945,46.910878 v 0 0 z"
           style="fill:#c283b6;fill-opacity:1;fill-rule:nonzero;stroke:#363636;stroke-width:1.25;stroke-linecap:butt;stroke-linejoin:miter;stroke-miterlimit:10;stroke-dasharray:none;stroke-opacity:1"
           id="path1457" />
      </g>
    </g>
    <g
       id="g1459">
      <g
         id="g1461"
         clip-path="url(#clipPath1465)">
        <path
           d="M 39.059375,92.638297 H 433.19952"
           style="fill:none;stroke:#708090;stroke-width:1;stroke-linecap:butt;stroke-linejoin:round;stroke-miterlimit:10;stroke-dasharray:3.7, 1.6;stroke-dashoffset:0;stroke-opacity:1"
           id="path1467" />
      </g>
    </g>
    <g
       id="g1469">
      <g
         id="g1471"
         clip-path="url(#clipPath1475)">
        <path
           d="M 131.02541,61.117877 V 130.03352"
           style="fill:none;stroke:#363636;stroke-width:1.875;stroke-linecap:round;stroke-linejoin:round;stroke-miterlimit:10;stroke-dasharray:none;stroke-opacity:1"
           id="path1477" />
      </g>
    </g>
    <g
       id="g1479">
      <g
         id="g1481"
         clip-path="url(#clipPath1485)">
        <path
           d="M 131.02541,86.996473 V 104.25973"
           style="fill:none;stroke:#363636;stroke-width:5.625;stroke-linecap:round;stroke-linejoin:round;stroke-miterlimit:10;stroke-dasharray:none;stroke-opacity:1"
           id="path1487" />
      </g>
    </g>
    <g
       id="g1489">
      <g
         id="g1491"
         clip-path="url(#clipPath1495)">
        <path
           d="m 133.36916,96.496352 h -4.6875"
           style="fill:#ffffff;fill-opacity:1;fill-rule:nonzero;stroke:#ffffff;stroke-width:1.125;stroke-linecap:butt;stroke-linejoin:round;stroke-miterlimit:10;stroke-dasharray:none;stroke-opacity:1"
           id="path1497" />
      </g>
    </g>
    <g
       id="g1499">
      <g
         id="g1501"
         clip-path="url(#clipPath1505)">
        <path
           d="M 236.12945,46.910878 V 276.74917"
           style="fill:none;stroke:#363636;stroke-width:1.875;stroke-linecap:round;stroke-linejoin:round;stroke-miterlimit:10;stroke-dasharray:none;stroke-opacity:1"
           id="path1507" />
      </g>
    </g>
    <g
       id="g1509">
      <g
         id="g1511"
         clip-path="url(#clipPath1515)">
        <path
           d="M 236.12945,47.522567 V 140.01566"
           style="fill:none;stroke:#363636;stroke-width:5.625;stroke-linecap:round;stroke-linejoin:round;stroke-miterlimit:10;stroke-dasharray:none;stroke-opacity:1"
           id="path1517" />
      </g>
    </g>
    <g
       id="g1519">
      <g
         id="g1521"
         clip-path="url(#clipPath1525)">
        <path
           d="m 238.4732,80.08885 h -4.6875"
           style="fill:#ffffff;fill-opacity:1;fill-rule:nonzero;stroke:#ffffff;stroke-width:1.125;stroke-linecap:butt;stroke-linejoin:round;stroke-miterlimit:10;stroke-dasharray:none;stroke-opacity:1"
           id="path1527" />
      </g>
    </g>
    <g
       id="g1529">
      <g
         id="g1531"
         clip-path="url(#clipPath1535)">
        <path
           d="M 341.23349,44.253019 V 126.24486"
           style="fill:none;stroke:#363636;stroke-width:1.875;stroke-linecap:round;stroke-linejoin:round;stroke-miterlimit:10;stroke-dasharray:none;stroke-opacity:1"
           id="path1537" />
      </g>
    </g>
    <g
       id="g1539">
      <g
         id="g1541"
         clip-path="url(#clipPath1545)">
        <path
           d="M 341.23349,48.70103 V 79.721963"
           style="fill:none;stroke:#363636;stroke-width:5.625;stroke-linecap:round;stroke-linejoin:round;stroke-miterlimit:10;stroke-dasharray:none;stroke-opacity:1"
           id="path1547" />
      </g>
    </g>
    <g
       id="g1549">
      <g
         id="g1551"
         clip-path="url(#clipPath1555)">
        <path
           d="m 343.57724,52.726334 h -4.6875"
           style="fill:#ffffff;fill-opacity:1;fill-rule:nonzero;stroke:#ffffff;stroke-width:1.125;stroke-linecap:butt;stroke-linejoin:round;stroke-miterlimit:10;stroke-dasharray:none;stroke-opacity:1"
           id="path1557" />
      </g>
    </g>
    <g
       id="g1559">
      <path
         d="M 39.059375,12.785938 V 285.78546"
         style="fill:none;stroke:#cccccc;stroke-width:0.8;stroke-linecap:square;stroke-linejoin:miter;stroke-miterlimit:10;stroke-dasharray:none;stroke-opacity:1"
         id="path1561" />
      <path
         d="M 39.059375,12.785938 H 433.19952"
         style="fill:none;stroke:#cccccc;stroke-width:0.8;stroke-linecap:square;stroke-linejoin:miter;stroke-miterlimit:10;stroke-dasharray:none;stroke-opacity:1"
         id="path1563" />
      <g
         id="g1565"
         transform="translate(393.78551,98.098287)">
        <text
           xml:space="preserve"
           transform="scale(1,-1)"
           style="font-variant:normal;font-weight:normal;font-size:9px;font-family:STIXGeneral;-inkscape-font-specification:STIXGeneral-Regular;writing-mode:lr-tb;fill:#262626;fill-opacity:1;fill-rule:nonzero;stroke:none"
           id="text1569"><tspan
             x="0 4.5 6.75 11.25 15.75 18 21.996"
             y="0"
             sodipodi:role="line"
             id="tspan1567">1.34 eV</tspan></text>
      </g>
      <path
         d="m 267.54327,235.23858 h 158.65625 c 1.33333,0 2,0.66667 2,2 v 41.54688 c 0,1.33333 -0.66667,2 -2,2 H 267.54327 c -1.33333,0 -2,-0.66667 -2,-2 v -41.54688 c 0,-1.33333 0.66667,-2 2,-2 z"
         style="fill:#ffffff;fill-opacity:0.8;fill-rule:nonzero;stroke:#cccccc;stroke-width:1;stroke-linecap:butt;stroke-linejoin:miter;stroke-miterlimit:10;stroke-dasharray:none;stroke-opacity:0.8"
         id="path1571" />
      <path
         d="m 269.54327,269.78546 h 20 v 7 h -20 z"
         style="fill:#176d9c;fill-opacity:1;fill-rule:nonzero;stroke:#363636;stroke-width:1.25;stroke-linecap:butt;stroke-linejoin:miter;stroke-miterlimit:10;stroke-dasharray:none;stroke-opacity:1"
         id="path1573" />
      <g
         id="g1575"
         transform="translate(297.54327,269.78546)">
        <text
           xml:space="preserve"
           transform="scale(1,-1)"
           style="font-variant:normal;font-weight:normal;font-size:10px;font-family:STIXGeneral;-inkscape-font-specification:STIXGeneral-Regular;writing-mode:lr-tb;fill:#262626;fill-opacity:1;fill-rule:nonzero;stroke:none"
           id="text1579"><tspan
             x="0 6.6700001 10 15 18.889999 21.67 26.110001 28.889999 32.220001 39.439999 45 52.220001 54.720001 58.049999 64.720001 71.940002"
             y="0"
             sodipodi:role="line"
             id="tspan1577">Crystal-GFN (BG)</tspan></text>
      </g>
      <path
         d="m 269.54327,255.59796 h 20 v 7 h -20 z"
         style="fill:#c38820;fill-opacity:1;fill-rule:nonzero;stroke:#363636;stroke-width:1.25;stroke-linecap:butt;stroke-linejoin:miter;stroke-miterlimit:10;stroke-dasharray:none;stroke-opacity:1"
         id="path1581" />
      <g
         id="g1583"
         transform="translate(297.54327,255.59796)">
        <text
           xml:space="preserve"
           transform="scale(1,-1)"
           style="font-variant:normal;font-weight:normal;font-size:10px;font-family:STIXGeneral;-inkscape-font-specification:STIXGeneral-Regular;writing-mode:lr-tb;fill:#262626;fill-opacity:1;fill-rule:nonzero;stroke:none"
           id="text1587"><tspan
             x="0 7.2199998 11.66 14.44 17.219999 22.219999 26.66 29.440001 32.220001 37.220001 42.220001 44.720001 48.610001 53.049999"
             y="0"
             sodipodi:role="line"
             id="tspan1585">Validation set</tspan></text>
      </g>
      <path
         d="m 269.54327,241.42608 h 20 v 7 h -20 z"
         style="fill:#c283b6;fill-opacity:1;fill-rule:nonzero;stroke:#363636;stroke-width:1.25;stroke-linecap:butt;stroke-linejoin:miter;stroke-miterlimit:10;stroke-dasharray:none;stroke-opacity:1"
         id="path1589" />
      <g
         id="g1591"
         transform="translate(297.54327,241.42608)">
        <text
           xml:space="preserve"
           transform="scale(1,-1)"
           style="font-variant:normal;font-weight:normal;font-size:10px;font-family:STIXGeneral;-inkscape-font-specification:STIXGeneral-Regular;writing-mode:lr-tb;fill:#262626;fill-opacity:1;fill-rule:nonzero;stroke:none"
           id="text1595"><tspan
             x="0 6.6700001 10 15 18.889999 21.67 26.110001 28.889999 32.220001 39.439999 45 52.220001 54.720001 58.049999 64.720001 71.940002 75.269997 77.769997 81.099998 85.540001 90.540001 95.540001 100.54 108.32 110.82 113.6 118.6 121.38 124.16"
             y="0"
             sodipodi:role="line"
             id="tspan1593">Crystal-GFN (BG) random init.</tspan></text>
      </g>
    </g>
  </g>
</svg>
