<?xml version="1.0" encoding="UTF-8" standalone="no"?>
<!-- Created with Inkscape (http://www.inkscape.org/) -->

<svg
   version="1.1"
   id="svg212"
   width="587.19934"
   height="395.19937"
   viewBox="0 0 587.19934 395.19937"
   sodipodi:docname="eform_energies_violins.svg"
   inkscape:version="1.2.2 (b0a8486541, 2022-12-01)"
   xmlns:inkscape="http://www.inkscape.org/namespaces/inkscape"
   xmlns:sodipodi="http://sodipodi.sourceforge.net/DTD/sodipodi-0.dtd"
   xmlns="http://www.w3.org/2000/svg"
   xmlns:svg="http://www.w3.org/2000/svg">
  <defs
     id="defs216">
    <clipPath
       clipPathUnits="userSpaceOnUse"
       id="clipPath232">
      <path
         d="M 39.059375,7.2 H 433.19952 V 285.78546 H 39.059375 Z"
         id="path230" />
    </clipPath>
    <clipPath
       clipPathUnits="userSpaceOnUse"
       id="clipPath252">
      <path
         d="M -970,-443 H 2000 V 1023 H -970 Z"
         id="path250" />
    </clipPath>
    <clipPath
       clipPathUnits="userSpaceOnUse"
       id="clipPath262">
      <path
         d="M 39.059375,7.2 H 433.19952 V 285.78546 H 39.059375 Z"
         id="path260" />
    </clipPath>
    <clipPath
       clipPathUnits="userSpaceOnUse"
       id="clipPath282">
      <path
         d="M -970,-443 H 2000 V 1023 H -970 Z"
         id="path280" />
    </clipPath>
    <clipPath
       clipPathUnits="userSpaceOnUse"
       id="clipPath292">
      <path
         d="M 39.059375,7.2 H 433.19952 V 285.78546 H 39.059375 Z"
         id="path290" />
    </clipPath>
    <clipPath
       clipPathUnits="userSpaceOnUse"
       id="clipPath310">
      <path
         d="M 39.059375,7.2 H 433.19952 V 285.78546 H 39.059375 Z"
         id="path308" />
    </clipPath>
    <clipPath
       clipPathUnits="userSpaceOnUse"
       id="clipPath328">
      <path
         d="M 39.059375,7.2 H 433.19952 V 285.78546 H 39.059375 Z"
         id="path326" />
    </clipPath>
    <clipPath
       clipPathUnits="userSpaceOnUse"
       id="clipPath346">
      <path
         d="M 39.059375,7.2 H 433.19952 V 285.78546 H 39.059375 Z"
         id="path344" />
    </clipPath>
    <clipPath
       clipPathUnits="userSpaceOnUse"
       id="clipPath370">
      <path
         d="M 39.059375,7.2 H 433.19952 V 285.78546 H 39.059375 Z"
         id="path368" />
    </clipPath>
    <clipPath
       clipPathUnits="userSpaceOnUse"
       id="clipPath380">
      <path
         d="M 39.059375,7.2 H 433.19952 V 285.78546 H 39.059375 Z"
         id="path378" />
    </clipPath>
    <clipPath
       clipPathUnits="userSpaceOnUse"
       id="clipPath390">
      <path
         d="M 39.059375,7.2 H 433.19952 V 285.78546 H 39.059375 Z"
         id="path388" />
    </clipPath>
    <clipPath
       clipPathUnits="userSpaceOnUse"
       id="clipPath400">
      <path
         d="M 39.059375,7.2 H 433.19952 V 285.78546 H 39.059375 Z"
         id="path398" />
    </clipPath>
    <clipPath
       clipPathUnits="userSpaceOnUse"
       id="clipPath410">
      <path
         d="M 39.059375,7.2 H 433.19952 V 285.78546 H 39.059375 Z"
         id="path408" />
    </clipPath>
    <clipPath
       clipPathUnits="userSpaceOnUse"
       id="clipPath420">
      <path
         d="M 39.059375,7.2 H 433.19952 V 285.78546 H 39.059375 Z"
         id="path418" />
    </clipPath>
    <clipPath
       clipPathUnits="userSpaceOnUse"
       id="clipPath430">
      <path
         d="M 39.059375,7.2 H 433.19952 V 285.78546 H 39.059375 Z"
         id="path428" />
    </clipPath>
    <clipPath
       clipPathUnits="userSpaceOnUse"
       id="clipPath440">
      <path
         d="M 39.059375,7.2 H 433.19952 V 285.78546 H 39.059375 Z"
         id="path438" />
    </clipPath>
    <clipPath
       clipPathUnits="userSpaceOnUse"
       id="clipPath450">
      <path
         d="M 39.059375,7.2 H 433.19952 V 285.78546 H 39.059375 Z"
         id="path448" />
    </clipPath>
    <clipPath
       clipPathUnits="userSpaceOnUse"
       id="clipPath460">
      <path
         d="M 39.059375,7.2 H 433.19952 V 285.78546 H 39.059375 Z"
         id="path458" />
    </clipPath>
    <clipPath
       clipPathUnits="userSpaceOnUse"
       id="clipPath470">
      <path
         d="M 39.059375,7.2 H 433.19952 V 285.78546 H 39.059375 Z"
         id="path468" />
    </clipPath>
    <clipPath
       clipPathUnits="userSpaceOnUse"
       id="clipPath480">
      <path
         d="M 39.059375,7.2 H 433.19952 V 285.78546 H 39.059375 Z"
         id="path478" />
    </clipPath>
    <clipPath
       clipPathUnits="userSpaceOnUse"
       id="clipPath490">
      <path
         d="M 39.059375,7.2 H 433.19952 V 285.78546 H 39.059375 Z"
         id="path488" />
    </clipPath>
    <clipPath
       clipPathUnits="userSpaceOnUse"
       id="clipPath500">
      <path
         d="M 39.059375,7.2 H 433.19952 V 285.78546 H 39.059375 Z"
         id="path498" />
    </clipPath>
    <clipPath
       clipPathUnits="userSpaceOnUse"
       id="clipPath510">
      <path
         d="M 39.059375,7.2 H 433.19952 V 285.78546 H 39.059375 Z"
         id="path508" />
    </clipPath>
    <clipPath
       clipPathUnits="userSpaceOnUse"
       id="clipPath520">
      <path
         d="M 39.059375,7.2 H 433.19952 V 285.78546 H 39.059375 Z"
         id="path518" />
    </clipPath>
  </defs>
  <sodipodi:namedview
     id="namedview214"
     pagecolor="#505050"
     bordercolor="#ffffff"
     borderopacity="1"
     inkscape:showpageshadow="0"
     inkscape:pageopacity="0"
     inkscape:pagecheckerboard="1"
     inkscape:deskcolor="#505050"
     showgrid="false"
     inkscape:zoom="2.0898331"
     inkscape:cx="344.04662"
     inkscape:cy="243.56012"
     inkscape:window-width="2560"
     inkscape:window-height="1371"
     inkscape:window-x="0"
     inkscape:window-y="32"
     inkscape:window-maximized="1"
     inkscape:current-layer="g220">
    <inkscape:page
       x="0"
       y="0"
       id="page218"
       width="587.19934"
       height="395.19937" />
  </sodipodi:namedview>
  <g
     id="g220"
     inkscape:groupmode="layer"
     inkscape:label="Page 1"
     transform="matrix(1.3333333,0,0,-1.3333333,0,395.19936)">
    <path
       d="M 0,0 H 440.39952 V 296.39952 H 0 Z"
       style="fill:#ffffff;fill-opacity:1;fill-rule:nonzero;stroke:none"
       id="path222" />
    <path
       d="M 39.059375,7.2 H 433.19952 V 285.78546 H 39.059375 Z"
       style="fill:#ffffff;fill-opacity:1;fill-rule:nonzero;stroke:none"
       id="path224" />
    <g
       id="g226">
      <g
         id="g228"
         clip-path="url(#clipPath232)">
        <path
           d="M 39.059375,20.465974 H 433.19952"
           style="fill:none;stroke:#cccccc;stroke-width:0.8;stroke-linecap:round;stroke-linejoin:round;stroke-miterlimit:10;stroke-dasharray:none;stroke-opacity:1"
           id="path234" />
      </g>
    </g>
    <g
       id="g236">
      <g
         id="g238"
         transform="translate(20.215625,17.051912)">
        <text
           xml:space="preserve"
           transform="matrix(1,0,0,-1,6.8499908,0)"
           style="font-variant:normal;font-weight:normal;font-size:10.00000001px;font-family:Ubuntu;-inkscape-font-specification:'Ubuntu, Normal';writing-mode:lr-tb;fill:#262626;fill-opacity:1;fill-rule:nonzero;stroke:none;font-style:normal;font-stretch:normal;font-variant-ligatures:normal;font-variant-caps:normal;font-variant-numeric:normal;font-variant-east-asian:normal"
           id="text242"><tspan
             x="0"
             y="0"
             id="tspan240"
             style="-inkscape-font-specification:'Ubuntu, Normal';font-family:Ubuntu;font-weight:normal;font-style:normal;font-stretch:normal;font-variant:normal;font-size:10.00000001px;font-variant-ligatures:normal;font-variant-caps:normal;font-variant-numeric:normal;font-variant-east-asian:normal">4</tspan></text>
        <g
           id="g244"
           transform="scale(0.01)">
          <g
             id="g246">
            <g
               id="g248"
               clip-path="url(#clipPath252)">
              <path
                 d="M 621,220 H 64 v 66 h 557 z"
                 style="fill:#262626;fill-opacity:1;fill-rule:nonzero;stroke:none"
                 id="path254" />
            </g>
          </g>
        </g>
      </g>
    </g>
    <g
       id="g256">
      <g
         id="g258"
         clip-path="url(#clipPath262)">
        <path
           d="M 39.059375,73.529871 H 433.19952"
           style="fill:none;stroke:#cccccc;stroke-width:0.8;stroke-linecap:round;stroke-linejoin:round;stroke-miterlimit:10;stroke-dasharray:none;stroke-opacity:1"
           id="path264" />
      </g>
    </g>
    <g
       id="g266">
      <g
         id="g268"
         transform="translate(20.215625,70.115808)">
        <text
           xml:space="preserve"
           transform="matrix(1,0,0,-1,6.8499908,0)"
           style="font-variant:normal;font-weight:normal;font-size:10.00000001px;font-family:Ubuntu;-inkscape-font-specification:'Ubuntu, Normal';writing-mode:lr-tb;fill:#262626;fill-opacity:1;fill-rule:nonzero;stroke:none;font-style:normal;font-stretch:normal;font-variant-ligatures:normal;font-variant-caps:normal;font-variant-numeric:normal;font-variant-east-asian:normal"
           id="text272"><tspan
             x="0"
             y="0"
             id="tspan270"
             style="-inkscape-font-specification:'Ubuntu, Normal';font-family:Ubuntu;font-weight:normal;font-style:normal;font-stretch:normal;font-variant:normal;font-size:10.00000001px;font-variant-ligatures:normal;font-variant-caps:normal;font-variant-numeric:normal;font-variant-east-asian:normal">2</tspan></text>
        <g
           id="g274"
           transform="scale(0.01)">
          <g
             id="g276">
            <g
               id="g278"
               clip-path="url(#clipPath282)">
              <path
                 d="M 621,220 H 64 v 66 h 557 z"
                 style="fill:#262626;fill-opacity:1;fill-rule:nonzero;stroke:none"
                 id="path284" />
            </g>
          </g>
        </g>
      </g>
    </g>
    <g
       id="g286">
      <g
         id="g288"
         clip-path="url(#clipPath292)">
        <path
           d="M 39.059375,126.59377 H 433.19952"
           style="fill:none;stroke:#cccccc;stroke-width:0.8;stroke-linecap:round;stroke-linejoin:round;stroke-miterlimit:10;stroke-dasharray:none;stroke-opacity:1"
           id="path294" />
      </g>
    </g>
    <g
       id="g296">
      <g
         id="g298"
         transform="translate(27.059375,123.1797)">
        <text
           xml:space="preserve"
           transform="scale(1,-1)"
           style="font-variant:normal;font-weight:normal;font-size:10.00000001px;font-family:Ubuntu;-inkscape-font-specification:'Ubuntu, Normal';writing-mode:lr-tb;fill:#262626;fill-opacity:1;fill-rule:nonzero;stroke:none;font-style:normal;font-stretch:normal;font-variant-ligatures:normal;font-variant-caps:normal;font-variant-numeric:normal;font-variant-east-asian:normal"
           id="text302"><tspan
             x="0"
             y="0"
             id="tspan300"
             style="-inkscape-font-specification:'Ubuntu, Normal';font-family:Ubuntu;font-weight:normal;font-style:normal;font-stretch:normal;font-variant:normal;font-size:10.00000001px;font-variant-ligatures:normal;font-variant-caps:normal;font-variant-numeric:normal;font-variant-east-asian:normal">0</tspan></text>
      </g>
    </g>
    <g
       id="g304">
      <g
         id="g306"
         clip-path="url(#clipPath310)">
        <path
           d="M 39.059375,179.65766 H 433.19952"
           style="fill:none;stroke:#cccccc;stroke-width:0.8;stroke-linecap:round;stroke-linejoin:round;stroke-miterlimit:10;stroke-dasharray:none;stroke-opacity:1"
           id="path312" />
      </g>
    </g>
    <g
       id="g314">
      <g
         id="g316"
         transform="translate(27.059375,176.2436)">
        <text
           xml:space="preserve"
           transform="scale(1,-1)"
           style="font-variant:normal;font-weight:normal;font-size:10.00000001px;font-family:Ubuntu;-inkscape-font-specification:'Ubuntu, Normal';writing-mode:lr-tb;fill:#262626;fill-opacity:1;fill-rule:nonzero;stroke:none;font-style:normal;font-stretch:normal;font-variant-ligatures:normal;font-variant-caps:normal;font-variant-numeric:normal;font-variant-east-asian:normal"
           id="text320"><tspan
             x="0"
             y="0"
             id="tspan318"
             style="-inkscape-font-specification:'Ubuntu, Normal';font-family:Ubuntu;font-weight:normal;font-style:normal;font-stretch:normal;font-variant:normal;font-size:10.00000001px;font-variant-ligatures:normal;font-variant-caps:normal;font-variant-numeric:normal;font-variant-east-asian:normal">2</tspan></text>
      </g>
    </g>
    <g
       id="g322">
      <g
         id="g324"
         clip-path="url(#clipPath328)">
        <path
           d="M 39.059375,232.72156 H 433.19952"
           style="fill:none;stroke:#cccccc;stroke-width:0.8;stroke-linecap:round;stroke-linejoin:round;stroke-miterlimit:10;stroke-dasharray:none;stroke-opacity:1"
           id="path330" />
      </g>
    </g>
    <g
       id="g332">
      <g
         id="g334"
         transform="translate(27.059375,229.3075)">
        <text
           xml:space="preserve"
           transform="scale(1,-1)"
           style="font-variant:normal;font-weight:normal;font-size:10.00000001px;font-family:Ubuntu;-inkscape-font-specification:'Ubuntu, Normal';writing-mode:lr-tb;fill:#262626;fill-opacity:1;fill-rule:nonzero;stroke:none;font-style:normal;font-stretch:normal;font-variant-ligatures:normal;font-variant-caps:normal;font-variant-numeric:normal;font-variant-east-asian:normal"
           id="text338"><tspan
             x="0"
             y="0"
             id="tspan336"
             style="-inkscape-font-specification:'Ubuntu, Normal';font-family:Ubuntu;font-weight:normal;font-style:normal;font-stretch:normal;font-variant:normal;font-size:10.00000001px;font-variant-ligatures:normal;font-variant-caps:normal;font-variant-numeric:normal;font-variant-east-asian:normal">4</tspan></text>
      </g>
    </g>
    <g
       id="g340">
      <g
         id="g342"
         clip-path="url(#clipPath346)">
        <path
           d="M 39.059375,285.78546 H 433.19952"
           style="fill:none;stroke:#cccccc;stroke-width:0.8;stroke-linecap:round;stroke-linejoin:round;stroke-miterlimit:10;stroke-dasharray:none;stroke-opacity:1"
           id="path348" />
      </g>
    </g>
    <g
       id="g350">
      <g
         id="g352"
         transform="translate(27.059375,282.37139)">
        <text
           xml:space="preserve"
           transform="scale(1,-1)"
           style="font-variant:normal;font-weight:normal;font-size:10.00000001px;font-family:Ubuntu;-inkscape-font-specification:'Ubuntu, Normal';writing-mode:lr-tb;fill:#262626;fill-opacity:1;fill-rule:nonzero;stroke:none;font-style:normal;font-stretch:normal;font-variant-ligatures:normal;font-variant-caps:normal;font-variant-numeric:normal;font-variant-east-asian:normal"
           id="text356"><tspan
             x="0"
             y="0"
             id="tspan354"
             style="-inkscape-font-specification:'Ubuntu, Normal';font-family:Ubuntu;font-weight:normal;font-style:normal;font-stretch:normal;font-variant:normal;font-size:10.00000001px;font-variant-ligatures:normal;font-variant-caps:normal;font-variant-numeric:normal;font-variant-east-asian:normal">6</tspan></text>
      </g>
      <g
         id="g358"
         transform="rotate(90,-27.978396,42.006521)">
        <text
           xml:space="preserve"
           transform="scale(1,-1)"
           style="font-variant:normal;font-weight:normal;font-size:10px;font-family:Ubuntu;-inkscape-font-specification:'Ubuntu, Normal';writing-mode:lr-tb;fill:#262626;fill-opacity:1;fill-rule:nonzero;stroke:none;font-style:normal;font-stretch:normal;font-variant-ligatures:normal;font-variant-caps:normal;font-variant-numeric:normal;font-variant-east-asian:normal"
           id="text362"><tspan
             x="0 5.5700002 8.8999996 13.34 18.34 21.120001 25.559999 28.34 32.779999 37.779999 40.279999 43.610001 48.610001 51.939999 59.720001 64.160004 66.940002 69.720001 74.720001 79.720001 82.220001 86.660004 91.660004 96.099998 99.43 104.43 109.43 111.93 115.26 119.7 126.92 129.7 134.14 136.92 141.92 149.7"
             y="0"
             sodipodi:role="line"
             id="tspan360">Predicted formation energy [eV/atom]</tspan></text>
      </g>
    </g>
    <g
       id="g364">
      <g
         id="g366"
         clip-path="url(#clipPath370)">
        <path
           d="m 131.34191,19.888563 h -0.633 l -0.23615,1.115045 -0.35052,1.115045 -0.58991,1.115045 -1.07952,1.115045 -1.90813,1.115045 -3.04856,1.115045 -4.30976,1.115045 -5.3849,1.115045 -6.02741,1.115045 -6.19458,1.115044 -5.971325,1.115045 -5.413725,1.115045 -4.561961,1.115045 -3.525837,1.115045 -2.415313,1.115045 -1.21792,1.115045 0.119257,1.115045 1.476637,1.115045 2.552915,1.115045 3.121829,1.115045 3.248623,1.115044 3.216776,1.115045 3.266422,1.115045 3.437633,1.115045 3.615119,1.115045 3.62275,1.115045 3.30345,1.115045 2.65045,1.115045 1.88159,1.115045 1.28738,1.115045 1.00262,1.115045 0.96847,1.115044 1.04608,1.115045 1.09466,1.115045 1.01411,1.115045 0.8229,1.115045 0.66472,1.115045 0.64407,1.115045 0.69706,1.115045 0.69716,1.115045 0.61019,1.115045 0.4845,1.115045 0.36939,1.115044 0.28444,1.115045 0.22078,1.115045 0.1634,1.115045 0.1189,1.115045 0.10644,1.115045 0.14262,1.115045 0.23972,1.115045 0.37491,1.115045 0.47839,1.115045 0.49498,1.115045 0.43104,1.115044 0.33118,1.115045 0.24649,1.115045 0.20595,1.115045 0.19013,1.115045 0.16371,1.115045 0.13216,1.115045 0.12091,1.115045 0.11535,1.115045 0.0796,1.115045 0.0218,1.115045 -0.012,1.115044 0.004,1.115045 0.0558,1.115045 0.11657,1.115045 0.15763,1.115045 0.15928,1.115045 0.12564,1.115045 0.0829,1.115048 0.0536,1.11504 0.0362,1.11505 0.0172,1.11504 -0.003,1.11505 -0.0107,1.11504 10e-4,1.11505 0.0211,1.11504 0.035,1.11505 0.0373,1.11504 0.0278,1.11505 0.0112,1.11504 -0.002,1.11505 -0.005,1.11504 0.001,1.11505 0.008,1.11504 0.01,1.11505 0.008,1.11504 0.004,1.11505 -7.9e-4,1.11504 -0.005,1.11505 -0.005,1.11504 0.002,1.11504 0.009,1.11505 0.009,1.11504 0.003,1.11505 -0.002,1.11504 -9.9e-4,1.11505 h 0.0465 v 0 l -9.8e-4,-1.11505 -0.002,-1.11504 0.003,-1.11505 0.009,-1.11504 0.009,-1.11505 0.002,-1.11504 -0.005,-1.11504 -0.005,-1.11505 -7.9e-4,-1.11504 0.004,-1.11505 0.008,-1.11504 0.01,-1.11505 0.008,-1.11504 0.001,-1.11505 -0.005,-1.11504 -0.002,-1.11505 0.0112,-1.11504 0.0278,-1.11505 0.0373,-1.11504 0.035,-1.11505 0.0211,-1.11504 0.001,-1.11505 -0.0108,-1.11504 -0.003,-1.11505 0.0172,-1.11504 0.0362,-1.11505 0.0536,-1.11504 0.0829,-1.115048 0.12564,-1.115045 0.15928,-1.115045 0.15762,-1.115045 0.11658,-1.115045 0.0558,-1.115045 0.004,-1.115045 -0.0119,-1.115044 0.0218,-1.115045 0.0796,-1.115045 0.11535,-1.115045 0.1209,-1.115045 0.13217,-1.115045 0.16371,-1.115045 0.19013,-1.115045 0.20594,-1.115045 0.2465,-1.115045 0.33118,-1.115045 0.43104,-1.115044 0.49498,-1.115045 0.47839,-1.115045 0.37491,-1.115045 0.23971,-1.115045 0.14263,-1.115045 0.10644,-1.115045 0.1189,-1.115045 0.16339,-1.115045 0.22079,-1.115045 0.28444,-1.115045 0.36939,-1.115044 0.48449,-1.115045 0.61019,-1.115045 0.69716,-1.115045 0.69707,-1.115045 0.64407,-1.115045 0.66472,-1.115045 0.8229,-1.115045 1.01411,-1.115045 1.09466,-1.115045 1.04608,-1.115045 0.96847,-1.115044 1.00262,-1.115045 1.28738,-1.115045 1.88158,-1.115045 2.65045,-1.115045 3.30345,-1.115045 3.62276,-1.115045 3.61512,-1.115045 3.43763,-1.115045 3.26642,-1.115045 3.21678,-1.115045 3.24862,-1.115044 3.12183,-1.115045 2.55291,-1.115045 1.47664,-1.115045 0.11926,-1.115045 -1.21792,-1.115045 -2.41531,-1.115045 -3.52584,-1.115045 -4.56196,-1.115045 -5.41373,-1.115045 -5.97132,-1.115045 -6.19458,-1.115044 -6.02741,-1.115045 -5.3849,-1.115045 -4.30977,-1.115045 -3.04855,-1.115045 -1.90813,-1.115045 -1.07952,-1.115045 -0.58991,-1.115045 -0.35053,-1.115045 -0.23614,-1.115045 z"
           style="fill:#176d9c;fill-opacity:1;fill-rule:nonzero;stroke:#363636;stroke-width:1.25;stroke-linecap:butt;stroke-linejoin:round;stroke-miterlimit:10;stroke-dasharray:none;stroke-opacity:1"
           id="path372" />
      </g>
    </g>
    <g
       id="g374">
      <g
         id="g376"
         clip-path="url(#clipPath380)">
        <path
           d="m 236.41131,23.406256 h -0.56373 l -0.0731,1.662921 -0.10029,1.662922 -0.16542,1.662922 -0.28677,1.662921 -0.47494,1.662922 -0.72687,1.662921 -1.02376,1.662922 -1.33632,1.662921 -1.63595,1.662922 -1.90621,1.662922 -2.14764,1.662921 -2.37736,1.662922 -2.63007,1.662921 -2.95965,1.662922 -3.4245,1.662922 -4.0421,1.662921 -4.72926,1.662922 -5.27976,1.662921 -5.42278,1.662922 -4.94798,1.662922 -3.82428,1.662921 -2.2362,1.662922 -0.51892,1.662921 0.96459,1.662922 1.94132,1.662922 2.29899,1.662921 2.1006,1.662922 1.55241,1.662921 0.94172,1.662922 0.55647,1.662922 0.59612,1.662921 1.09344,1.662922 1.88717,1.662921 2.68331,1.662922 3.19215,1.662922 3.26569,1.662921 2.94962,1.662922 2.42506,1.662921 1.89294,1.662922 1.48175,1.662921 1.22238,1.662922 1.07943,1.662922 0.99781,1.662921 0.93224,1.662922 0.85292,1.662921 0.73934,1.662922 0.57787,1.662921 0.36835,1.66292 0.13309,1.66292 -0.0837,1.66292 -0.23285,1.66293 -0.28544,1.66292 -0.2487,1.66292 -0.16138,1.66292 -0.0741,1.66292 -0.0309,1.66293 -0.0607,1.66292 -0.17199,1.66292 -0.34067,1.66292 -0.49503,1.66292 -0.51889,1.66292 -0.29482,1.66293 0.223,1.66292 0.95306,1.66292 1.69876,1.66292 2.23549,1.66292 2.42018,1.66292 2.25163,1.66292 1.84865,1.66293 1.37231,1.66292 0.94929,1.66292 0.63677,1.66292 0.43179,1.66292 0.30246,1.66292 0.21605,1.66292 0.15232,1.66293 0.10326,1.66292 0.0674,1.66292 0.045,1.66292 0.0359,1.66292 0.0389,1.66292 0.0512,1.66293 0.0684,1.66292 0.0854,1.66292 0.0977,1.66292 0.10256,1.66292 0.0991,1.66292 0.0882,1.66293 0.0716,1.66292 0.052,1.66292 0.0321,1.66292 0.0145,1.66292 0.001,1.66292 -0.007,1.66292 -0.0105,1.66293 -0.01,1.66292 -0.005,1.66292 0.002,1.66292 0.01,1.66292 h 0.19773 v 0 l 0.01,-1.66292 0.002,-1.66292 -0.005,-1.66292 -0.01,-1.66292 -0.0105,-1.66293 -0.007,-1.66292 10e-4,-1.66292 0.0145,-1.66292 0.0321,-1.66292 0.052,-1.66292 0.0716,-1.66292 0.0882,-1.66293 0.0991,-1.66292 0.10256,-1.66292 0.0977,-1.66292 0.0854,-1.66292 0.0684,-1.66292 0.0512,-1.66293 0.0389,-1.66292 0.0359,-1.66292 0.045,-1.66292 0.0674,-1.66292 0.10326,-1.66292 0.15233,-1.66293 0.21605,-1.66292 0.30245,-1.66292 0.4318,-1.66292 0.63677,-1.66292 0.94929,-1.66292 1.3723,-1.66292 1.84865,-1.66293 2.25163,-1.66292 2.42018,-1.66292 2.23549,-1.66292 1.69876,-1.66292 0.95306,-1.66292 0.22301,-1.66292 -0.29483,-1.66293 -0.51889,-1.66292 -0.49502,-1.66292 -0.34068,-1.66292 -0.17199,-1.66292 -0.0607,-1.66292 -0.0309,-1.66293 -0.0741,-1.66292 -0.16137,-1.66292 -0.24871,-1.66292 -0.28544,-1.66292 -0.23285,-1.66293 -0.0837,-1.66292 0.13308,-1.66292 0.36835,-1.66292 0.57788,-1.662921 0.73933,-1.662922 0.85292,-1.662921 0.93225,-1.662922 0.9978,-1.662921 1.07943,-1.662922 1.22239,-1.662922 1.48174,-1.662921 1.89295,-1.662922 2.42505,-1.662921 2.94963,-1.662922 3.26568,-1.662921 3.19215,-1.662922 2.68332,-1.662922 1.88717,-1.662921 1.09343,-1.662922 0.59613,-1.662921 0.55646,-1.662922 0.94172,-1.662922 1.55241,-1.662921 2.1006,-1.662922 2.299,-1.662921 1.94131,-1.662922 0.9646,-1.662922 -0.51893,-1.662921 -2.23619,-1.662922 -3.82428,-1.662921 -4.94799,-1.662922 -5.42277,-1.662922 -5.27977,-1.662921 -4.72926,-1.662922 -4.04209,-1.662921 -3.42451,-1.662922 -2.95964,-1.662922 -2.63008,-1.662921 -2.37736,-1.662922 -2.14764,-1.662921 -1.9062,-1.662922 -1.63595,-1.662922 -1.33632,-1.662921 -1.02377,-1.662922 -0.72686,-1.662921 -0.47495,-1.662922 -0.28677,-1.662921 -0.16542,-1.662922 -0.10029,-1.662922 -0.0731,-1.662921 z"
           style="fill:#c38820;fill-opacity:1;fill-rule:nonzero;stroke:#363636;stroke-width:1.25;stroke-linecap:butt;stroke-linejoin:round;stroke-miterlimit:10;stroke-dasharray:none;stroke-opacity:1"
           id="path382" />
      </g>
    </g>
    <g
       id="g384">
      <g
         id="g386"
         clip-path="url(#clipPath390)">
        <path
           d="m 341.32352,72.539657 h -0.18006 l -0.0354,1.949744 -0.0281,1.949745 -0.0135,1.949744 -1.7e-4,1.949745 0.005,1.949744 0.002,1.949744 -9.4e-4,1.949745 -0.003,1.949744 -0.008,1.949745 -0.0172,1.949744 -0.0304,1.949744 -0.045,1.949745 -0.06,1.949744 -0.0817,1.949745 -0.12562,1.949741 -0.21484,1.94975 -0.37593,1.94974 -0.63439,1.94975 -1.01147,1.94974 -1.52067,1.94975 -2.14728,1.94974 -2.8073,1.94974 -3.33813,1.94975 -3.57631,1.94974 -3.47825,1.94975 -3.17414,1.94974 -2.89832,1.94975 -2.82927,1.94974 -2.94982,1.94975 -3.07106,1.94974 -3.03638,1.94974 -2.89046,1.94975 -2.79187,1.94974 -2.77026,1.94975 -2.64825,1.94974 -2.20997,1.94975 -1.38157,1.94974 -0.26373,1.94974 0.92609,1.94975 1.93834,1.94974 2.5955,1.94975 2.87011,1.94974 2.8614,1.94975 2.67616,1.94974 2.34208,1.94974 1.85225,1.94975 1.26128,1.94974 0.70006,1.94975 0.29726,1.94974 0.0761,1.94975 -0.0902,1.94974 -0.38287,1.94975 -0.83629,1.94974 -1.2481,1.94974 -1.34583,1.94975 -1.04139,1.94974 -0.47825,1.94975 0.14932,1.94974 0.74761,1.94975 1.28829,1.94974 1.71326,1.94975 1.96603,1.94974 2.10725,1.94974 2.30247,1.94975 2.64314,1.94974 3.02483,1.94975 3.24422,1.94974 3.19081,1.94975 2.91704,1.94974 2.54826,1.94974 2.16968,1.94975 1.79926,1.94974 1.42907,1.94975 1.07038,1.94974 0.7635,1.94975 0.54595,1.94974 0.41561,1.94975 0.3358,1.94974 0.27149,1.94974 0.20797,1.94975 0.14407,1.94974 0.0853,1.94975 0.0423,1.94974 0.0231,1.94975 0.023,1.94974 0.0283,1.94975 0.0295,1.94974 0.0275,1.94974 0.0274,1.94975 0.0313,1.94974 0.0382,1.94975 0.0439,1.94974 0.0428,1.94975 0.0307,1.94974 0.0101,1.94975 -0.009,1.94974 -0.0136,1.94974 -0.002,1.94975 0.0179,1.94974 h 0.21123 v 0 l 0.0179,-1.94974 -0.002,-1.94975 -0.0136,-1.94974 -0.009,-1.94974 0.0101,-1.94975 0.0307,-1.94974 0.0428,-1.94975 0.0439,-1.94974 0.0381,-1.94975 0.0313,-1.94974 0.0274,-1.94975 0.0275,-1.94974 0.0295,-1.94974 0.0283,-1.94975 0.023,-1.94974 0.0231,-1.94975 0.0423,-1.94974 0.0853,-1.94975 0.14406,-1.94974 0.20797,-1.94975 0.27149,-1.94974 0.3358,-1.94974 0.41561,-1.94975 0.54595,-1.94974 0.76351,-1.94975 1.07038,-1.94974 1.42907,-1.94975 1.79926,-1.94974 2.16967,-1.94975 2.54826,-1.94974 2.91704,-1.94974 3.19081,-1.94975 3.24422,-1.94974 3.02483,-1.94975 2.64314,-1.94974 2.30247,-1.94975 2.10725,-1.94974 1.96603,-1.94974 1.71326,-1.94975 1.28829,-1.94974 0.74762,-1.94975 0.14931,-1.94974 -0.47825,-1.94975 -1.04139,-1.94974 -1.34582,-1.94975 -1.2481,-1.94974 -0.8363,-1.94974 -0.38287,-1.94975 -0.0902,-1.94974 0.0761,-1.94975 0.29726,-1.94974 0.70006,-1.94975 1.26128,-1.94974 1.85225,-1.94975 2.34209,-1.94974 2.67616,-1.94974 2.86139,-1.94975 2.87011,-1.94974 2.5955,-1.94975 1.93834,-1.94974 0.92609,-1.94975 -0.26373,-1.94974 -1.38157,-1.94974 -2.20997,-1.94975 -2.64825,-1.94974 -2.77025,-1.94975 -2.79188,-1.94974 -2.89046,-1.94975 -3.03638,-1.94974 -3.07106,-1.94974 -2.94982,-1.94975 -2.82927,-1.94974 -2.89831,-1.94975 -3.17415,-1.94974 -3.47825,-1.94975 -3.57631,-1.94974 -3.33813,-1.94975 -2.80729,-1.94974 -2.14729,-1.94974 -1.52066,-1.94975 -1.01147,-1.94974 -0.6344,-1.94975 -0.37592,-1.94974 -0.21485,-1.94975 -0.12562,-1.949741 -0.0817,-1.949745 -0.06,-1.949744 -0.045,-1.949745 -0.0304,-1.949744 -0.0172,-1.949744 -0.008,-1.949745 -0.003,-1.949744 -9.3e-4,-1.949745 0.002,-1.949744 0.005,-1.949744 -1.7e-4,-1.949745 -0.0135,-1.949744 -0.0281,-1.949745 -0.0354,-1.949744 z"
           style="fill:#c283b6;fill-opacity:1;fill-rule:nonzero;stroke:#363636;stroke-width:1.25;stroke-linecap:butt;stroke-linejoin:round;stroke-miterlimit:10;stroke-dasharray:none;stroke-opacity:1"
           id="path392" />
      </g>
    </g>
    <g
       id="g394">
      <g
         id="g396"
         clip-path="url(#clipPath400)">
        <path
           d="m 236.12945,126.59377 v 0 0 z"
           style="fill:#176d9c;fill-opacity:1;fill-rule:nonzero;stroke:#363636;stroke-width:1.25;stroke-linecap:butt;stroke-linejoin:miter;stroke-miterlimit:10;stroke-dasharray:none;stroke-opacity:1"
           id="path402" />
      </g>
    </g>
    <g
       id="g404">
      <g
         id="g406"
         clip-path="url(#clipPath410)">
        <path
           d="m 236.12945,126.59377 v 0 0 z"
           style="fill:#c38820;fill-opacity:1;fill-rule:nonzero;stroke:#363636;stroke-width:1.25;stroke-linecap:butt;stroke-linejoin:miter;stroke-miterlimit:10;stroke-dasharray:none;stroke-opacity:1"
           id="path412" />
      </g>
    </g>
    <g
       id="g414">
      <g
         id="g416"
         clip-path="url(#clipPath420)">
        <path
           d="m 236.12945,126.59377 v 0 0 z"
           style="fill:#c283b6;fill-opacity:1;fill-rule:nonzero;stroke:#363636;stroke-width:1.25;stroke-linecap:butt;stroke-linejoin:miter;stroke-miterlimit:10;stroke-dasharray:none;stroke-opacity:1"
           id="path422" />
      </g>
    </g>
    <g
       id="g424">
      <g
         id="g426"
         clip-path="url(#clipPath430)">
        <path
           d="M 39.059375,126.59377 H 433.19952"
           style="fill:none;stroke:#708090;stroke-width:1;stroke-linecap:butt;stroke-linejoin:round;stroke-miterlimit:10;stroke-dasharray:3.7, 1.6;stroke-dashoffset:0;stroke-opacity:1"
           id="path432" />
      </g>
    </g>
    <g
       id="g434">
      <g
         id="g436"
         clip-path="url(#clipPath440)">
        <path
           d="M 131.02541,19.888563 V 69.761291"
           style="fill:none;stroke:#363636;stroke-width:1.875;stroke-linecap:round;stroke-linejoin:round;stroke-miterlimit:10;stroke-dasharray:none;stroke-opacity:1"
           id="path442" />
      </g>
    </g>
    <g
       id="g444">
      <g
         id="g446"
         clip-path="url(#clipPath450)">
        <path
           d="M 131.02541,35.905018 V 49.457847"
           style="fill:none;stroke:#363636;stroke-width:5.625;stroke-linecap:round;stroke-linejoin:round;stroke-miterlimit:10;stroke-dasharray:none;stroke-opacity:1"
           id="path452" />
      </g>
    </g>
    <g
       id="g454">
      <g
         id="g456"
         clip-path="url(#clipPath460)">
        <path
           d="m 133.36916,41.317508 h -4.6875"
           style="fill:#ffffff;fill-opacity:1;fill-rule:nonzero;stroke:#ffffff;stroke-width:1.125;stroke-linecap:butt;stroke-linejoin:round;stroke-miterlimit:10;stroke-dasharray:none;stroke-opacity:1"
           id="path462" />
      </g>
    </g>
    <g
       id="g464">
      <g
         id="g466"
         clip-path="url(#clipPath470)">
        <path
           d="M 236.12945,23.406256 V 148.3777"
           style="fill:none;stroke:#363636;stroke-width:1.875;stroke-linecap:round;stroke-linejoin:round;stroke-miterlimit:10;stroke-dasharray:none;stroke-opacity:1"
           id="path472" />
      </g>
    </g>
    <g
       id="g474">
      <g
         id="g476"
         clip-path="url(#clipPath480)">
        <path
           d="M 236.12945,60.561638 V 96.184914"
           style="fill:none;stroke:#363636;stroke-width:5.625;stroke-linecap:round;stroke-linejoin:round;stroke-miterlimit:10;stroke-dasharray:none;stroke-opacity:1"
           id="path482" />
      </g>
    </g>
    <g
       id="g484">
      <g
         id="g486"
         clip-path="url(#clipPath490)">
        <path
           d="m 238.4732,74.325284 h -4.6875"
           style="fill:#ffffff;fill-opacity:1;fill-rule:nonzero;stroke:#ffffff;stroke-width:1.125;stroke-linecap:butt;stroke-linejoin:round;stroke-miterlimit:10;stroke-dasharray:none;stroke-opacity:1"
           id="path492" />
      </g>
    </g>
    <g
       id="g494">
      <g
         id="g496"
         clip-path="url(#clipPath500)">
        <path
           d="M 341.23349,83.220314 V 242.9193"
           style="fill:none;stroke:#363636;stroke-width:1.875;stroke-linecap:round;stroke-linejoin:round;stroke-miterlimit:10;stroke-dasharray:none;stroke-opacity:1"
           id="path502" />
      </g>
    </g>
    <g
       id="g504">
      <g
         id="g506"
         clip-path="url(#clipPath510)">
        <path
           d="m 341.23349,141.26452 v 40.7731"
           style="fill:none;stroke:#363636;stroke-width:5.625;stroke-linecap:round;stroke-linejoin:round;stroke-miterlimit:10;stroke-dasharray:none;stroke-opacity:1"
           id="path512" />
      </g>
    </g>
    <g
       id="g514">
      <g
         id="g516"
         clip-path="url(#clipPath520)">
        <path
           d="m 343.57724,157.67587 h -4.6875"
           style="fill:#ffffff;fill-opacity:1;fill-rule:nonzero;stroke:#ffffff;stroke-width:1.125;stroke-linecap:butt;stroke-linejoin:round;stroke-miterlimit:10;stroke-dasharray:none;stroke-opacity:1"
           id="path522" />
      </g>
    </g>
    <g
       id="g524">
      <path
         d="M 39.059375,7.2 V 285.78546"
         style="fill:none;stroke:#cccccc;stroke-width:0.8;stroke-linecap:square;stroke-linejoin:miter;stroke-miterlimit:10;stroke-dasharray:none;stroke-opacity:1"
         id="path526" />
      <path
         d="M 39.059375,7.2 H 433.19952"
         style="fill:none;stroke:#cccccc;stroke-width:0.8;stroke-linecap:square;stroke-linejoin:miter;stroke-miterlimit:10;stroke-dasharray:none;stroke-opacity:1"
         id="path528" />
      <path
         d="M 46.059375,235.23858 H 202.49687 c 1.33334,0 2,0.66667 2,2 v 41.54688 c 0,1.33333 -0.66666,2 -2,2 H 46.059375 c -1.333333,0 -2,-0.66667 -2,-2 v -41.54688 c 0,-1.33333 0.666667,-2 2,-2 z"
         style="fill:#ffffff;fill-opacity:0.8;fill-rule:nonzero;stroke:#cccccc;stroke-width:1;stroke-linecap:butt;stroke-linejoin:miter;stroke-miterlimit:10;stroke-dasharray:none;stroke-opacity:0.8"
         id="path530" />
      <path
         d="m 48.059375,269.78546 h 20 v 7 h -20 z"
         style="fill:#176d9c;fill-opacity:1;fill-rule:nonzero;stroke:#363636;stroke-width:1.25;stroke-linecap:butt;stroke-linejoin:miter;stroke-miterlimit:10;stroke-dasharray:none;stroke-opacity:1"
         id="path532" />
      <g
         id="g534"
         transform="translate(76.059375,269.78546)">
        <text
           xml:space="preserve"
           transform="scale(1,-1)"
           style="font-variant:normal;font-weight:normal;font-size:10px;font-family:Ubuntu;-inkscape-font-specification:'Ubuntu, Normal';writing-mode:lr-tb;fill:#262626;fill-opacity:1;fill-rule:nonzero;stroke:none;font-style:normal;font-stretch:normal;font-variant-ligatures:normal;font-variant-caps:normal;font-variant-numeric:normal;font-variant-east-asian:normal"
           id="text538"><tspan
             x="0 6.6700001 10 15 18.889999 21.67 26.110001 28.889999 32.220001 39.439999 45 52.220001 54.720001 58.049999 63.610001 69.720001"
             y="0"
             sodipodi:role="line"
             id="tspan536">Crystal-GFN (FE)</tspan></text>
      </g>
      <path
         d="m 48.059375,255.59796 h 20 v 7 h -20 z"
         style="fill:#c38820;fill-opacity:1;fill-rule:nonzero;stroke:#363636;stroke-width:1.25;stroke-linecap:butt;stroke-linejoin:miter;stroke-miterlimit:10;stroke-dasharray:none;stroke-opacity:1"
         id="path540" />
      <g
         id="g542"
         transform="translate(76.059375,255.59796)">
        <text
           xml:space="preserve"
           transform="scale(1,-1)"
           style="font-variant:normal;font-weight:normal;font-size:10px;font-family:Ubuntu;-inkscape-font-specification:'Ubuntu, Normal';writing-mode:lr-tb;fill:#262626;fill-opacity:1;fill-rule:nonzero;stroke:none;font-style:normal;font-stretch:normal;font-variant-ligatures:normal;font-variant-caps:normal;font-variant-numeric:normal;font-variant-east-asian:normal"
           id="text546"><tspan
             x="0 7.2199998 11.66 14.44 17.219999 22.219999 26.66 29.440001 32.220001 37.220001 42.220001 44.720001 48.610001 53.049999"
             y="0"
             sodipodi:role="line"
             id="tspan544">Validation set</tspan></text>
      </g>
      <path
         d="m 48.059375,241.42608 h 20 v 7 h -20 z"
         style="fill:#c283b6;fill-opacity:1;fill-rule:nonzero;stroke:#363636;stroke-width:1.25;stroke-linecap:butt;stroke-linejoin:miter;stroke-miterlimit:10;stroke-dasharray:none;stroke-opacity:1"
         id="path548" />
      <g
         id="g550"
         transform="translate(76.059375,241.42608)">
        <text
           xml:space="preserve"
           transform="scale(1,-1)"
           style="font-variant:normal;font-weight:normal;font-size:10px;font-family:Ubuntu;-inkscape-font-specification:'Ubuntu, Normal';writing-mode:lr-tb;fill:#262626;fill-opacity:1;fill-rule:nonzero;stroke:none;font-style:normal;font-stretch:normal;font-variant-ligatures:normal;font-variant-caps:normal;font-variant-numeric:normal;font-variant-east-asian:normal"
           id="text554"><tspan
             x="0 6.6700001 10 15 18.889999 21.67 26.110001 28.889999 32.220001 39.439999 45 52.220001 54.720001 58.049999 63.610001 69.720001 73.050003 75.550003 78.879997 83.32 88.32 93.32 98.32 106.1 108.6 111.38 116.38 119.16 121.94"
             y="0"
             sodipodi:role="line"
             id="tspan552">Crystal-GFN (FE) random init.</tspan></text>
      </g>
    </g>
  </g>
</svg>
